<?xml version="1.0" encoding="UTF-8"?>
<svg width="92px" height="157px" viewBox="0 0 92 157" version="1.1" xmlns="http://www.w3.org/2000/svg" xmlns:xlink="http://www.w3.org/1999/xlink">
   <style type="text/css">
<![CDATA[
      


    #steam1{
      -webkit-animation: steaming 3s linear infinite;
      -moz-animation: steaming 3s linear infinite;
      animation: steaming 3s linear infinite;
    }

    #steam2{
      -webkit-animation: steaming 3s linear infinite;
      -moz-animation: steaming 3s linear infinite;
      animation: steaming 3s linear infinite;
    }


  @-webkit-keyframes steaming {
    0% {
      transform: translateY(0px);
      opacity: 0;
    }

    50% {
      opacity: 1;
    }

    100% {
      transform: translateY(-5px);
      opacity: 0;
    }
  }

  @keyframes steaming {
    0% {
      opacity: 0;
    }

    50% {
      opacity: 1;
    }

    100% {
      transform: translateY(-5px);
      opacity: 0;
    }
  }
  
@-moz-keyframes steaming {
    0% {
      transform: translateY(0px);
      opacity: 0;
    }

    50% {
      opacity: 1;
    }

    100% {
      transform: translateY(-5px);
      opacity: 0;
    }
  }

]]>
</style>



    <g id="Page-1" stroke="none" stroke-width="1" fill="none" fill-rule="evenodd">
        <g id="intro">
            <path d="M46.47,51.9 L53,56.42 C53,56.42 59.63,48.84 59.7,47.59 C59.88,44.35 59.21,40.59 60.27,37.34 C62.02,31.99 67.27,33.26 68.57,36.12 C68.57,36.12 60.01,36.05 70.57,36.12 C71.5386845,36.0696837 72.4451794,36.5979281 72.8789723,37.4655138 C73.3127652,38.3330996 73.1914637,39.3752422 72.57,40.12 C72.46,40.27 75.57,41.29 73.57,44.41 C76.09,47.2 72.93,48.89 72.71,49.11 C68.9,52.72 64.51,60.6 62.31,64.11 C57.53,71.82 44.21,64.46 43.31,63.65 C43,63.42 46.47,51.9 46.47,51.9 Z" id="Path" fill="#FFBFFB" fill-rule="nonzero"></path>
            <path d="M46.47,51.9 L53,56.42 C53,56.42 59.63,48.84 59.7,47.59 C59.88,44.35 59.21,40.59 60.27,37.34 C62.02,31.99 67.27,33.26 68.57,36.12 C68.57,36.12 60.01,36.05 70.57,36.12 C71.5386845,36.0696837 72.4451794,36.5979281 72.8789723,37.4655138 C73.3127652,38.3330996 73.1914637,39.3752422 72.57,40.12 C72.46,40.27 75.57,41.29 73.57,44.41 C76.09,47.2 72.93,48.89 72.71,49.11 C68.9,52.72 64.51,60.6 62.31,64.11 C57.53,71.82 44.21,64.46 43.31,63.65 C43,63.42 46.47,51.9 46.47,51.9 Z" id="Path" stroke="#000000" stroke-width="0.57" stroke-linecap="round"></path>
            <path d="M65.79,36.24 C62.79,36.6 62,40.79 65.91,40.61 C67.44,40.54 69.42,40.38 69.29,40.41 C68.81,40.51 62.74,40.83 64.55,43.52 C65.69,45.2 70.44,44.52 70.28,44.52 C69.2606239,44.6184468 68.2659599,44.8924869 67.34,45.33 C64.53,46.45 65.25,48.82 68,49.06 C68.7,49.12 69.71,49.15 70.44,49.15" id="Path" stroke="#000000" stroke-width="0.57" stroke-linecap="round"></path>
            <path d="M52.91,34.6 L65.78,34.6 L65.78,47.89 C65.78,49.4545917 64.514582,50.7244909 62.95,50.73 L55.74,50.73 C54.175418,50.7244909 52.91,49.4545917 52.91,47.89 L52.91,34.6 Z" id="Path" fill="#FFBFFB" fill-rule="nonzero"></path>
            <path d="M52.91,34.6 L65.78,34.6 L65.78,47.89 C65.78,49.4545917 64.514582,50.7244909 62.95,50.73 L55.74,50.73 C54.175418,50.7244909 52.91,49.4545917 52.91,47.89 L52.91,34.6 Z" id="Path" stroke="#373435" stroke-width="0.57" stroke-linecap="round"></path>
            <path d="M56.44,31.66 C54.02,25.36 58.57,25.66 58.55,21.87 C58.55,19.87 56.81,19.16 56.69,17.35" id="steam1" stroke="#373435" stroke-width="0.57" stroke-linecap="round"></path>
            <path d="M59.26,33 C56.75,27.26 59.04,27.74 60.03,24.31" id="steam2" stroke="#373435" stroke-width="0.57" stroke-linecap="round"></path>
            <path d="M25.76,106.66 L25.76,106.66 C24.3468119,106.670945 23.2054353,107.81678 23.2,109.23 L23.2,153.61 C23.2846157,154.964512 24.4078472,156.019766 25.765,156.019766 C27.1221528,156.019766 28.2453843,154.964512 28.33,153.61 L28.33,109.23 C28.3245179,107.812905 27.1770949,106.665482 25.76,106.66 Z" id="Path" fill="#000000" fill-rule="nonzero"></path>
            <path d="M25.76,106.66 L25.76,106.66 C24.3468119,106.670945 23.2054353,107.81678 23.2,109.23 L23.2,153.61 C23.2846157,154.964512 24.4078472,156.019766 25.765,156.019766 C27.1221528,156.019766 28.2453843,154.964512 28.33,153.61 L28.33,109.23 C28.3245179,107.812905 27.1770949,106.665482 25.76,106.66 Z" id="Path" stroke="#000000" stroke-width="0.57" stroke-linecap="round"></path>
            <rect id="Rectangle" fill="#000000" fill-rule="nonzero" x="4.55" y="105.92" width="42.67" height="10.56" rx="5.28"></rect>
            <rect id="Rectangle" stroke="#000000" stroke-width="0.57" stroke-linecap="round" x="4.55" y="105.92" width="42.67" height="10.56" rx="5.28"></rect>
            <path d="M27.29,109.42 L27.29,109.42 C25.9762131,109.939925 25.328529,111.422899 25.84,112.74 L42,154.08 C42.3340433,154.932078 43.0972905,155.541222 44.0022338,155.677971 C44.907177,155.81472 45.8163339,155.4583 46.3872339,154.742971 C46.9581338,154.027641 47.1040434,153.062078 46.77,152.21 L30.64,110.88 C30.3924423,110.23972 29.8990179,109.725091 29.2697142,109.450827 C28.6404105,109.176563 27.9275379,109.165463 27.29,109.42 L27.29,109.42 Z" id="Path" fill="#000000" fill-rule="nonzero"></path>
            <path d="M27.29,109.42 L27.29,109.42 C25.9762131,109.939925 25.328529,111.422899 25.84,112.74 L42,154.08 C42.3340433,154.932078 43.0972905,155.541222 44.0022338,155.677971 C44.907177,155.81472 45.8163339,155.4583 46.3872339,154.742971 C46.9581338,154.027641 47.1040434,153.062078 46.77,152.21 L30.64,110.88 C30.3924423,110.23972 29.8990179,109.725091 29.2697142,109.450827 C28.6404105,109.176563 27.9275379,109.165463 27.29,109.42 L27.29,109.42 Z" id="Path" stroke="#000000" stroke-width="0.57" stroke-linecap="round"></path>
            <path d="M23.66,109.42 L23.66,109.42 C24.9777212,109.935961 25.6303898,111.420111 25.12,112.74 L9,154.08 C8.48361376,155.397199 6.99719913,156.046386 5.68,155.53 C4.36280087,155.013614 3.71361376,153.527199 4.23,152.21 L20.37,110.88 C20.8816914,109.574383 22.3485555,108.923434 23.66,109.42 L23.66,109.42 Z" id="Path" fill="#000000" fill-rule="nonzero"></path>
            <path d="M23.66,109.42 L23.66,109.42 C24.9777212,109.935961 25.6303898,111.420111 25.12,112.74 L9,154.08 C8.48361376,155.397199 6.99719913,156.046386 5.68,155.53 C4.36280087,155.013614 3.71361376,153.527199 4.23,152.21 L20.37,110.88 C20.8816914,109.574383 22.3485555,108.923434 23.66,109.42 L23.66,109.42 Z" id="Path" stroke="#000000" stroke-width="0.57" stroke-linecap="round"></path>
            <path d="M80,139.12 L59,139.12 C58.6509477,139.130426 58.3704264,139.410948 58.36,139.76 L57.36,153.92 L90.93,153.92 C91.56,147.99 87.22,146.19 82.1,143.65 C80.11,142.18 80,139.12 80,139.12 Z" id="Path" fill="#FFBFFB" fill-rule="nonzero"></path>
            <path d="M80,139.12 L59,139.12 C58.6509477,139.130426 58.3704264,139.410948 58.36,139.76 L57.36,153.92 L90.93,153.92 C91.56,147.99 87.22,146.19 82.1,143.65 C80.11,142.18 80,139.12 80,139.12 Z" id="Path" stroke="#000000" stroke-width="0.57" stroke-linecap="round" stroke-linejoin="round"></path>
            <rect id="Rectangle" fill="#FFBFFB" fill-rule="nonzero" x="56.31" y="151.65" width="35.27" height="4.31" rx="0.64"></rect>
            <rect id="Rectangle" stroke="#000000" stroke-width="0.57" stroke-linecap="round" stroke-linejoin="round" x="56.31" y="151.65" width="35.27" height="4.31" rx="0.64"></rect>
            <path d="M79.66,139.42 L80.1,141.18 C74.5401552,140.294969 68.9344073,139.727382 63.31,139.48 L79.66,139.42 Z" id="Path" fill="#000000" fill-rule="nonzero"></path>
            <path d="M79.66,139.42 L80.1,141.18 C74.5401552,140.294969 68.9344073,139.727382 63.31,139.48 L79.66,139.42 Z" id="Path" stroke="#000000" stroke-width="0.57" stroke-linecap="round"></path>
            <path d="M63.05,139.08 L42.05,139.08 C41.7030363,139.095217 41.4252171,139.373036 41.41,139.72 L40.41,153.88 L74,153.88 C74.63,147.95 70.29,146.15 65.16,143.61 C63.21,142.14 63.05,139.08 63.05,139.08 Z" id="Path" fill="#FFBFFB" fill-rule="nonzero"></path>
            <path d="M63.05,139.08 L42.05,139.08 C41.7030363,139.095217 41.4252171,139.373036 41.41,139.72 L40.41,153.88 L74,153.88 C74.63,147.95 70.29,146.15 65.16,143.61 C63.21,142.14 63.05,139.08 63.05,139.08 Z" id="Path" stroke="#000000" stroke-width="0.57" stroke-linecap="round" stroke-linejoin="round"></path>
            <rect id="Rectangle" fill="#FFBFFB" fill-rule="nonzero" x="39.41" y="151.62" width="35.27" height="4.31" rx="0.64"></rect>
            <rect id="Rectangle" stroke="#000000" stroke-width="0.57" stroke-linecap="round" stroke-linejoin="round" x="39.41" y="151.62" width="35.27" height="4.31" rx="0.64"></rect>
            <path d="M63.06,139.38 L63.49,141.15 C58.0756691,140.2294 52.6077011,139.65822 47.12,139.44 L63.06,139.38 Z" id="Path" fill="#000000" fill-rule="nonzero"></path>
            <path d="M63.06,139.38 L63.49,141.15 C58.0756691,140.2294 52.6077011,139.65822 47.12,139.44 L63.06,139.38 Z" id="Path" stroke="#000000" stroke-width="0.57" stroke-linecap="round"></path>
            <path d="M42.22,14.8 C42.22,23.35 42.22,23.21 42.22,31.8 C42.07,52.91 54.59,53.33 53.14,82.43 C52.93,86.68 49.46,86.15 48.81,91.86 C44.01,93.03 31.16,88.34 26.36,89.5 C21.57,88.34 9.7,97.93 4.91,96.76 C3.62,91.12 2.05,87.76 2.09,83.32 C2.28,56.32 13.48,49.6 13.46,33.32 L13.46,14.86 C13.43,-4.14 42.19,-3.49 42.22,14.8 Z" id="Path" fill="#FFBFFB" fill-rule="nonzero"></path>
            <path d="M42.22,14.8 C42.22,23.35 42.22,23.21 42.22,31.8 C42.07,52.91 54.59,53.33 53.14,82.43 C52.93,86.68 49.46,86.15 48.81,91.86 C44.01,93.03 31.16,88.34 26.36,89.5 C21.57,88.34 9.7,97.93 4.91,96.76 C3.62,91.12 2.05,87.76 2.09,83.32 C2.28,56.32 13.48,49.6 13.46,33.32 L13.46,14.86 C13.43,-4.14 42.19,-3.49 42.22,14.8 Z" id="Path" stroke="#000000" stroke-width="0.57" stroke-linecap="round" stroke-linejoin="round"></path>
            <path d="M59.19,81.77 C67.53,82.26 81.73,85.85 81.11,105.47 C81.11,124.62 81.19,138.42 81.11,139.41 C81.9,139.66 41.36,139.61 41.36,139.61 C41.36,139.61 41.65,116.97 41.52,112.56 C41.41,108.85 41.23,105.84 35.97,105.86 C35.04,105.86 23.33,105.86 22.35,105.92 C14.27,106.22 0.15,106.92 0.41,90.92 C0.41,88.52 1.16,86.13 2.16,82.48 C2.18473503,82.2372953 2.18473503,81.9927047 2.16,81.75 L48.64,81.75 C51.94,81.77 56,81.59 59.19,81.77 Z" id="Path" fill="#FFBFFB" fill-rule="nonzero"></path>
            <path d="M59.19,81.77 C67.53,82.26 81.73,85.85 81.11,105.47 C81.11,124.62 81.19,138.42 81.11,139.41 C81.9,139.66 41.36,139.61 41.36,139.61 C41.36,139.61 41.65,116.97 41.52,112.56 C41.41,108.85 41.23,105.84 35.97,105.86 C35.04,105.86 23.33,105.86 22.35,105.92 C14.27,106.22 0.15,106.92 0.41,90.92 C0.41,88.52 1.16,86.13 2.16,82.48 C2.18473503,82.2372953 2.18473503,81.9927047 2.16,81.75 L48.64,81.75 C51.94,81.77 56,81.59 59.19,81.77 Z" id="Path" stroke="#000000" stroke-width="0.57" stroke-linecap="round" stroke-linejoin="round"></path>
            <path d="M13.73,36.69 L42.23,36.69 C43.3345695,36.69 44.23,37.5854305 44.23,38.69 C44.23,39.7945695 43.3345695,40.69 42.23,40.69 L13.73,40.69 C12.6254305,40.69 11.73,39.7945695 11.73,38.69 C11.73,37.5854305 12.6254305,36.69 13.73,36.69 Z" id="Path" fill="#FFBFFB" fill-rule="nonzero"></path>
            <path d="M13.73,36.69 L42.23,36.69 C43.3345695,36.69 44.23,37.5854305 44.23,38.69 C44.23,39.7945695 43.3345695,40.69 42.23,40.69 L13.73,40.69 C12.6254305,40.69 11.73,39.7945695 11.73,38.69 C11.73,37.5854305 12.6254305,36.69 13.73,36.69 Z" id="Path" stroke="#000000" stroke-width="0.57" stroke-linecap="round"></path>
            <line x1="13.46" y1="13.14" x2="57.3" y2="13.14" id="Path" stroke="#000000" stroke-width="0.57" stroke-linecap="round"></line>
            <path d="M42.86,40.71 L43.3,42.48 C37.7417858,41.5824901 32.135311,41.0148304 26.51,40.78 L42.86,40.71 Z" id="Path" fill="#000000" fill-rule="nonzero"></path>
            <path d="M42.86,40.71 L43.3,42.48 C37.7417858,41.5824901 32.135311,41.0148304 26.51,40.78 L42.86,40.71 Z" id="Path" stroke="#000000" stroke-width="0.57" stroke-linecap="round"></path>
            <path d="M41.77,13.07 L42.21,14.84 C36.6518927,13.9416762 31.0453694,13.3740115 25.42,13.14 L41.77,13.07 Z" id="Path" fill="#000000" fill-rule="nonzero"></path>
            <path d="M41.77,13.07 L42.21,14.84 C36.6518927,13.9416762 31.0453694,13.3740115 25.42,13.14 L41.77,13.07 Z" id="Path" stroke="#000000" stroke-width="0.57" stroke-linecap="round"></path>
            <path d="M64.48,139.74 L64.48,103.36 C64.48,101.64 65.26,83.01 48.64,81.73" id="Path" stroke="#000000" stroke-width="0.57" stroke-linecap="round"></path>
            <path d="M41.26,25.69 C40.3403025,25.689934 39.5937603,24.9462773 39.5901063,24.026587 C39.5865052,23.1068967 40.3271578,22.3573739 41.2468262,22.3500529 C42.1664945,22.3427319 42.9189857,23.0803685 42.9300593,24 C42.9326601,24.4455661 42.7582067,24.8739388 42.4450192,25.190877 C42.1318318,25.5078152 41.7055662,25.6873557 41.26,25.69 L41.26,25.69 Z" id="Path" fill="#FEFEFE" fill-rule="nonzero"></path>
            <path d="M41.26,25.69 C40.3403025,25.689934 39.5937603,24.9462773 39.5901063,24.026587 C39.5865052,23.1068967 40.3271578,22.3573739 41.2468262,22.3500529 C42.1664945,22.3427319 42.9189857,23.0803685 42.9300593,24 C42.9326601,24.4455661 42.7582067,24.8739388 42.4450192,25.190877 C42.1318318,25.5078152 41.7055662,25.6873557 41.26,25.69 L41.26,25.69 Z" id="Path" stroke="#000000" stroke-width="0.57" stroke-linecap="round" stroke-linejoin="round"></path>
            <path d="M27.23,22.35 C27.9072615,22.3500486 28.5174312,22.759129 28.7746997,23.3856241 C29.0319682,24.0121192 28.885386,24.7319578 28.4036136,25.2079604 C27.9218412,25.6839631 27.2002889,25.8218622 26.5769388,25.5570646 C25.9535887,25.2922669 25.5518891,24.677213 25.56,24 C25.5709528,23.0855044 26.3154388,22.3499344 27.23,22.35 Z" id="Path" fill="#FEFEFE" fill-rule="nonzero"></path>
            <path d="M27.23,22.35 C27.9072615,22.3500486 28.5174312,22.759129 28.7746997,23.3856241 C29.0319682,24.0121192 28.885386,24.7319578 28.4036136,25.2079604 C27.9218412,25.6839631 27.2002889,25.8218622 26.5769388,25.5570646 C25.9535887,25.2922669 25.5518891,24.677213 25.56,24 C25.5709528,23.0855044 26.3154388,22.3499344 27.23,22.35 Z" id="Path" stroke="#000000" stroke-width="0.57" stroke-linecap="round" stroke-linejoin="round"></path>
            <path d="M40.63,17.54 C41.288864,17.4435924 41.9614877,17.5481453 42.56,17.84" id="Path" stroke="#000000" stroke-width="0.57" stroke-linecap="round"></path>
            <path d="M27.94,17.54 C27.2811289,17.441689 26.6079414,17.5463296 26.01,17.84" id="Path" stroke="#000000" stroke-width="0.57" stroke-linecap="round"></path>
            <path d="M41.76,24.71 C41.8649341,24.71 41.95,24.7950659 41.95,24.9 C41.9449774,25.0027818 41.8627818,25.0849774 41.76,25.09 C41.6550659,25.09 41.57,25.0049341 41.57,24.9 C41.567065,24.8487653 41.5861384,24.7987139 41.6224262,24.7624262 C41.6587139,24.7261384 41.7087653,24.707065 41.76,24.71 L41.76,24.71 Z" id="Path" fill="#000000" fill-rule="nonzero"></path>
            <path d="M41.76,24.71 C41.8649341,24.71 41.95,24.7950659 41.95,24.9 C41.9449774,25.0027818 41.8627818,25.0849774 41.76,25.09 C41.6550659,25.09 41.57,25.0049341 41.57,24.9 C41.567065,24.8487653 41.5861384,24.7987139 41.6224262,24.7624262 C41.6587139,24.7261384 41.7087653,24.707065 41.76,24.71 L41.76,24.71 Z" id="Path" stroke="#000000" stroke-width="0.57" stroke-linecap="round" stroke-linejoin="round"></path>
            <path d="M27.84,24.9 C27.7372182,24.8949774 27.6550226,24.8127818 27.65,24.71 C27.6498666,24.6033333 27.7334666,24.5153333 27.84,24.51 C27.8921726,24.5099277 27.9420794,24.5313123 27.9780132,24.5691374 C28.0139471,24.6069625 28.032746,24.6578997 28.03,24.71 C28.03,24.7603911 28.0099822,24.8087184 27.9743503,24.8443503 C27.9387184,24.8799822 27.8903911,24.9 27.84,24.9 Z" id="Path" fill="#000000" fill-rule="nonzero"></path>
            <path d="M27.84,24.9 C27.7372182,24.8949774 27.6550226,24.8127818 27.65,24.71 C27.6498666,24.6033333 27.7334666,24.5153333 27.84,24.51 C27.8921726,24.5099277 27.9420794,24.5313123 27.9780132,24.5691374 C28.0139471,24.6069625 28.032746,24.6578997 28.03,24.71 C28.03,24.7603911 28.0099822,24.8087184 27.9743503,24.8443503 C27.9387184,24.8799822 27.8903911,24.9 27.84,24.9 Z" id="Path" stroke="#000000" stroke-width="0.57" stroke-linecap="round" stroke-linejoin="round"></path>
            <path d="M29.87,28.88 C30.26,29.82 31.35,29.94 32.25,29.94" id="Path" stroke="#373435" stroke-width="0.57" stroke-linecap="round"></path>
            <path d="M37.58,43.21 L53.1,48.71 L45.52,75.71 L28.52,69.71 L35.69,44.18 C35.7910697,43.7867169 36.0556723,43.4555181 36.4169341,43.2701086 C36.7781958,43.0846992 37.2015496,43.0628197 37.58,43.21 Z" id="Path" fill="#000000" fill-rule="nonzero"></path>
            <path d="M37.58,43.21 L53.1,48.71 L45.52,75.71 L28.52,69.71 L35.69,44.18 C35.7910697,43.7867169 36.0556723,43.4555181 36.4169341,43.2701086 C36.7781958,43.0846992 37.2015496,43.0628197 37.58,43.21 Z" id="Path" stroke="#000000" stroke-width="0.57" stroke-linecap="round"></path>
            <path d="M59,43.64 L53.28,48.64 L45.7,75.64 L52.56,69.64 L59.39,45.33 C59.84,43.84 59.66,43.09 59,43.64 Z" id="Path" fill="#000000" fill-rule="nonzero"></path>
            <path d="M59,43.64 L53.28,48.64 L45.7,75.64 L52.56,69.64 L59.39,45.33 C59.84,43.84 59.66,43.09 59,43.64 Z" id="Path" stroke="#000000" stroke-width="0.57" stroke-linecap="round"></path>
            <path d="M18.75,47.2 C22.26,52.14 22.91,57.11 27.5,61.39 C28.36,62.19 34.4,63.96 38.97,65.27 C40.91,65.82 44.52,64.66 45.42,64.94 C46.32,65.22 47.9,66.04 46.61,68.37 C46.36,68.83 49.74,68.5 50.38,69.18 C52.17,71.11 49.38,72.55 49.38,72.55 C49.53,74.07 48.49,74.65 46.94,75.25 C46.6960284,75.9999137 46.0341639,76.5364548 45.25,76.62 C41.222481,77.0204636 37.1556834,76.6815638 33.25,75.62 C31.84,75.23 30.35,74.76 28.93,74.27 C21.66,71.76 15.93,70.27 12.41,62.96 C12.1,62.32 10.56,59.22 9.41,57.05 C6.41,51.25 16.13,42.96 18.72,47.15" id="Path" fill="#FFBFFB" fill-rule="nonzero"></path>
            <path d="M18.75,47.2 C22.26,52.14 22.91,57.11 27.5,61.39 C28.36,62.19 34.4,63.96 38.97,65.27 C40.91,65.82 44.52,64.66 45.42,64.94 C46.32,65.22 47.9,66.04 46.61,68.37 C46.36,68.83 49.74,68.5 50.38,69.18 C52.17,71.11 49.38,72.55 49.38,72.55 C49.53,74.07 48.49,74.65 46.94,75.25 C46.6960284,75.9999137 46.0341639,76.5364548 45.25,76.62 C41.222481,77.0204636 37.1556834,76.6815638 33.25,75.62 C31.84,75.23 30.35,74.76 28.93,74.27 C21.66,71.76 15.93,70.27 12.41,62.96 C12.1,62.32 10.56,59.22 9.41,57.05" id="Path" stroke="#000000" stroke-width="0.57" stroke-linecap="round"></path>
            <path d="M45,72 C46.5077646,72.4242603 48.077785,72.5832925 49.64,72.47" id="Path" stroke="#000000" stroke-width="0.57" stroke-linecap="round"></path>
            <path d="M42.5,74.69 C44.0043376,75.1143058 45.571084,75.2733491 47.13,75.16" id="Path" stroke="#000000" stroke-width="0.57" stroke-linecap="round"></path>
            <path d="M39,77.84 C31.11,77.02 21.87,72.56 18,69.84 C17.44,69.44 15.81,67.96 17.93,69.58 C20.05,71.2 23.93,72.58 26.93,73.66 C32.2803268,75.6464263 37.9331901,76.6951323 43.64,76.76 C43.64,76.76 42.41,78.19 39,77.84 Z" id="Path" fill="#000000" fill-rule="nonzero"></path>
            <path d="M39,77.84 C31.11,77.02 21.87,72.56 18,69.84 C17.44,69.44 15.81,67.96 17.93,69.58 C20.05,71.2 23.93,72.58 26.93,73.66 C32.2803268,75.6464263 37.9331901,76.6951323 43.64,76.76 C43.64,76.76 42.41,78.19 39,77.84 Z" id="Path" stroke="#000000" stroke-width="0.57" stroke-linecap="round"></path>
            <line x1="46.96" y1="68.62" x2="43.01" y2="68.13" id="Path" stroke="#000000" stroke-width="0.57" stroke-linecap="round"></line>
        </g>
    </g>
</svg>